<mxfile host="65bd71144e">
    <diagram id="C5RBs43oDa-KdzZeNtuy" name="Page-1">
        <mxGraphModel dx="896" dy="662" grid="1" gridSize="10" guides="1" tooltips="1" connect="1" arrows="1" fold="1" page="1" pageScale="1" pageWidth="827" pageHeight="1169" math="0" shadow="0">
            <root>
                <mxCell id="WIyWlLk6GJQsqaUBKTNV-0"/>
                <mxCell id="WIyWlLk6GJQsqaUBKTNV-1" parent="WIyWlLk6GJQsqaUBKTNV-0"/>
                <mxCell id="3J61HqbtU3uNq7fCaihK-0" value="TOPIC" style="swimlane;whiteSpace=wrap;html=1;fillColor=#6a00ff;fontColor=#ffffff;strokeColor=#3700CC;" parent="WIyWlLk6GJQsqaUBKTNV-1" vertex="1">
                    <mxGeometry x="40" y="328" width="120" height="146" as="geometry"/>
                </mxCell>
                <mxCell id="LYCKqy3vysF1D8YGocV4-6" value="- Title&lt;div&gt;- Difficulty&lt;/div&gt;" style="text;html=1;align=left;verticalAlign=middle;resizable=0;points=[];autosize=1;strokeColor=none;fillColor=none;fontSize=20;" parent="3J61HqbtU3uNq7fCaihK-0" vertex="1">
                    <mxGeometry x="4" y="41" width="110" height="60" as="geometry"/>
                </mxCell>
                <mxCell id="LYCKqy3vysF1D8YGocV4-0" value="GROUP" style="swimlane;whiteSpace=wrap;html=1;fillColor=#d80073;fontColor=#ffffff;strokeColor=#A50040;" parent="WIyWlLk6GJQsqaUBKTNV-1" vertex="1">
                    <mxGeometry x="270" y="330" width="202" height="170" as="geometry"/>
                </mxCell>
                <mxCell id="LYCKqy3vysF1D8YGocV4-7" value="- Label&lt;div&gt;- Num of members&lt;/div&gt;&lt;div&gt;- topic: Topic&lt;/div&gt;&lt;div&gt;- Student&lt;/div&gt;" style="text;html=1;align=left;verticalAlign=middle;resizable=0;points=[];autosize=1;strokeColor=none;fillColor=none;fontSize=19;" parent="LYCKqy3vysF1D8YGocV4-0" vertex="1">
                    <mxGeometry x="13" y="23" width="180" height="100" as="geometry"/>
                </mxCell>
                <mxCell id="LYCKqy3vysF1D8YGocV4-1" value="STUDENT" style="swimlane;whiteSpace=wrap;html=1;fillColor=#008a00;fontColor=#ffffff;strokeColor=#005700;" parent="WIyWlLk6GJQsqaUBKTNV-1" vertex="1">
                    <mxGeometry x="540" y="330" width="120" height="170" as="geometry"/>
                </mxCell>
                <mxCell id="LYCKqy3vysF1D8YGocV4-8" value="- Title&lt;div&gt;- Difficulty&lt;/div&gt;" style="text;html=1;align=left;verticalAlign=middle;resizable=0;points=[];autosize=1;strokeColor=none;fillColor=none;fontSize=21;" parent="LYCKqy3vysF1D8YGocV4-1" vertex="1">
                    <mxGeometry y="50" width="120" height="60" as="geometry"/>
                </mxCell>
                <mxCell id="LYCKqy3vysF1D8YGocV4-12" style="rounded=0;orthogonalLoop=1;jettySize=auto;html=1;edgeStyle=orthogonalEdgeStyle;dashed=1;" parent="WIyWlLk6GJQsqaUBKTNV-1" source="LYCKqy3vysF1D8YGocV4-3" edge="1">
                    <mxGeometry relative="1" as="geometry">
                        <mxPoint x="90" y="480" as="targetPoint"/>
                    </mxGeometry>
                </mxCell>
                <mxCell id="LYCKqy3vysF1D8YGocV4-13" style="edgeStyle=orthogonalEdgeStyle;rounded=0;orthogonalLoop=1;jettySize=auto;html=1;entryX=0.5;entryY=1;entryDx=0;entryDy=0;dashed=1;" parent="WIyWlLk6GJQsqaUBKTNV-1" source="LYCKqy3vysF1D8YGocV4-3" target="LYCKqy3vysF1D8YGocV4-1" edge="1">
                    <mxGeometry relative="1" as="geometry"/>
                </mxCell>
                <mxCell id="LYCKqy3vysF1D8YGocV4-3" value="Collect&amp;nbsp;&lt;div&gt;data&lt;/div&gt;" style="shape=note;whiteSpace=wrap;html=1;backgroundOutline=1;darkOpacity=0.05;fontSize=18;" parent="WIyWlLk6GJQsqaUBKTNV-1" vertex="1">
                    <mxGeometry x="160" y="535" width="140" height="115" as="geometry"/>
                </mxCell>
                <mxCell id="LYCKqy3vysF1D8YGocV4-4" value="- Assign Topic to group" style="shape=note;whiteSpace=wrap;html=1;backgroundOutline=1;darkOpacity=0.05;fontSize=19;" parent="WIyWlLk6GJQsqaUBKTNV-1" vertex="1">
                    <mxGeometry x="330" y="120" width="140" height="140" as="geometry"/>
                </mxCell>
                <mxCell id="LYCKqy3vysF1D8YGocV4-5" value="- Assign Student to group" style="shape=note;whiteSpace=wrap;html=1;backgroundOutline=1;darkOpacity=0.05;fontSize=19;" parent="WIyWlLk6GJQsqaUBKTNV-1" vertex="1">
                    <mxGeometry x="620" y="140" width="150" height="130" as="geometry"/>
                </mxCell>
                <mxCell id="LYCKqy3vysF1D8YGocV4-10" style="edgeStyle=orthogonalEdgeStyle;rounded=0;orthogonalLoop=1;jettySize=auto;html=1;dashed=1;" parent="WIyWlLk6GJQsqaUBKTNV-1" source="LYCKqy3vysF1D8YGocV4-0" edge="1">
                    <mxGeometry relative="1" as="geometry">
                        <mxPoint x="540" y="415" as="targetPoint"/>
                    </mxGeometry>
                </mxCell>
                <mxCell id="LYCKqy3vysF1D8YGocV4-14" value="GENERATION" style="swimlane;whiteSpace=wrap;html=1;" parent="WIyWlLk6GJQsqaUBKTNV-1" vertex="1">
                    <mxGeometry x="60" y="105" width="130" height="145" as="geometry"/>
                </mxCell>
                <mxCell id="LYCKqy3vysF1D8YGocV4-15" value="-&amp;nbsp; Group&lt;div&gt;- Date&lt;/div&gt;" style="text;html=1;align=left;verticalAlign=middle;resizable=0;points=[];autosize=1;strokeColor=none;fillColor=none;" parent="WIyWlLk6GJQsqaUBKTNV-1" vertex="1">
                    <mxGeometry x="75" y="153" width="70" height="40" as="geometry"/>
                </mxCell>
                <mxCell id="0" style="edgeStyle=none;html=1;" edge="1" parent="WIyWlLk6GJQsqaUBKTNV-1" source="LYCKqy3vysF1D8YGocV4-6">
                    <mxGeometry relative="1" as="geometry">
                        <mxPoint x="270" y="410" as="targetPoint"/>
                    </mxGeometry>
                </mxCell>
            </root>
        </mxGraphModel>
    </diagram>
</mxfile>